<svg xmlns="http://www.w3.org/2000/svg" xmlns:xlink="http://www.w3.org/1999/xlink" version="1.1" x="0px" y="0px" viewBox="0 0 1024 1280" style="enable-background:new 0 0 1024 1024;" xml:space="preserve"><g><g><g><path d="M837.28,498.27c-11.35,11.35-22.71,22.71-34.06,34.06c-27.27,27.27-54.55,54.55-81.82,81.82     c-33.13,33.12-66.25,66.25-99.38,99.37c-28.53,28.53-57.06,57.06-85.59,85.59c-13.84,13.84-28.22,27.31-41.6,41.6     c-0.19,0.2-0.39,0.39-0.59,0.59c11.79,0,23.57,0,35.36,0c-10.22-10.22-20.44-20.44-30.66-30.66     c-24.22-24.22-48.43-48.43-72.65-72.65c-28.54-28.54-57.08-57.08-85.62-85.62c-23.12-23.12-46.25-46.25-69.37-69.37     c-8.92-8.92-17.84-17.84-26.76-26.76c-11.83-11.83-23.66-23.66-35.49-35.49c-10.38-10.38-21.22-20.5-30.97-31.5     c-2.39-2.7-4.69-5.48-6.96-8.28c-2.71-3.34,3.54,4.73-0.02-0.05c-1.28-1.71-2.53-3.45-3.75-5.2     c-4.04-5.79-7.78-11.79-11.19-17.97c-1.69-3.06-3.3-6.17-4.84-9.31c-0.71-1.46-1.41-2.93-2.09-4.41     c-0.39-0.84-0.75-1.7-1.14-2.54c-1.81-3.93,1.76,4.36,0.61,1.5c-2.68-6.63-5.11-13.34-7.14-20.2     c-1.95-6.59-3.57-13.29-4.85-20.04c-0.34-1.8-0.66-3.6-0.95-5.41c-0.19-1.18-0.96-6.64-0.36-2.1c0.65,4.9-0.2-1.87-0.3-2.8     c-0.19-1.82-0.36-3.64-0.5-5.46c-1.12-14.17-0.6-28.26,0.98-42.36c0.31-2.78-0.51,3.65-0.44,3.25c0.17-0.89,0.26-1.81,0.4-2.71     c0.28-1.81,0.59-3.61,0.92-5.41c0.66-3.6,1.42-7.19,2.27-10.75c1.6-6.7,3.54-13.33,5.8-19.84c1.14-3.27,2.36-6.51,3.66-9.72     c2.04-5.04-1.86,4.16-0.08,0.22c0.86-1.9,1.72-3.81,2.62-5.69c3.13-6.53,6.61-12.9,10.42-19.06c1.74-2.81,3.54-5.58,5.41-8.3     c1.08-1.56,2.17-3.11,3.29-4.65c0.42-0.58,0.85-1.15,1.27-1.72c2.34-3.14,0.38-0.35-0.87,1.08c4.92-5.67,9.54-11.5,14.81-16.87     c5.99-6.12,12.38-11.8,19.04-17.18c1.31-1.06,3.51-1.82-1.14,0.87c0.69-0.4,1.34-1,1.98-1.48c1.55-1.14,3.11-2.26,4.68-3.35     c3.58-2.48,7.24-4.85,10.97-7.1c7.15-4.31,14.57-8.17,22.2-11.57c5.7-2.54-3.48,1.33,0.67-0.3c1.99-0.78,3.97-1.57,5.97-2.3     c3.99-1.47,8.03-2.81,12.11-4.03c7.86-2.35,15.87-4.22,23.95-5.62c1.67-0.29,3.97-0.18,5.48-0.87c-0.38,0.18-6.33,0.77-1.94,0.26     c0.79-0.09,1.57-0.19,2.36-0.27c4.19-0.46,8.4-0.8,12.61-1.01c8.16-0.4,16.34-0.33,24.49,0.23c3.95,0.27,7.88,0.7,11.81,1.15     c2.83,0.32-2.89-0.4-2.72-0.36c1.01,0.23,2.1,0.31,3.13,0.48c2.35,0.38,4.69,0.8,7.02,1.26c8.06,1.58,16.03,3.65,23.84,6.18     c3.55,1.15,7.06,2.39,10.54,3.73c1.6,0.62,7.93,3.79,1.45,0.51c1.9,0.96,3.93,1.73,5.86,2.64c7.58,3.56,14.93,7.58,22.01,12.04     c3.47,2.18,6.86,4.47,10.19,6.86c0.94,0.67,5.62,4.26,2.76,1.99c-2.87-2.29,0.02,0.03,0.73,0.6c1.08,0.87,2.16,1.74,3.22,2.63     c6.29,5.25,12.13,10.96,17.91,16.74c12.87,12.87,25.74,25.74,38.61,38.61c3.13,3.13,6.26,6.26,9.39,9.39     c9.55,9.55,25.79,9.57,35.36,0c17.28-17.28,34.53-34.58,51.84-51.84c2.93-2.92,5.92-5.78,9.01-8.53c2.32-2.07,4.69-4.09,7.1-6.05     c0.6-0.49,1.21-0.97,1.81-1.46c3.27-2.65-1,0.81-1.4,1.07c1.49-0.96,2.88-2.15,4.33-3.19c10.87-7.79,22.5-14.51,34.68-20.03     c1.36-0.62,2.75-1.18,4.11-1.81c0.19-0.09-5.09,2.06-2.52,1.09c0.7-0.26,1.38-0.56,2.08-0.83c3.23-1.27,6.5-2.46,9.8-3.56     c6.09-2.04,12.28-3.79,18.54-5.26c3.12-0.73,6.26-1.38,9.41-1.97c1.45-0.27,2.91-0.52,4.36-0.76c0.73-0.12,1.46-0.23,2.19-0.35     c3.46-0.57-1.37,0.18-2.26,0.27c6.61-0.67,13.17-1.4,19.83-1.63c6.38-0.22,12.77-0.14,19.14,0.23c3.19,0.18,6.37,0.44,9.55,0.77     c1.46,0.15,2.93,0.4,4.4,0.5c0.29,0.02-5.78-0.84-2.99-0.4c0.97,0.15,1.95,0.29,2.92,0.44c12.93,2.05,25.66,5.32,37.96,9.77     c1.4,0.51,2.8,1.03,4.19,1.57c0.87,0.34,6.59,2.66,2.87,1.12c-3.51-1.46,1.53,0.71,2.37,1.09c1.78,0.81,3.55,1.65,5.3,2.52     c6.56,3.23,12.96,6.82,19.13,10.75c3.12,1.98,6.19,4.05,9.2,6.2c1.4,1,2.76,2.04,4.15,3.05c2.75,2-3.6-2.92-0.97-0.75     c0.89,0.73,1.8,1.44,2.69,2.17c5.75,4.72,11.23,9.75,16.43,15.07c4.4,4.49,8.59,9.19,12.56,14.07c0.45,0.56,0.9,1.12,1.35,1.68     c2.58,3.17-1.06-1.37-1.27-1.67c0.82,1.17,1.72,2.28,2.56,3.44c1.95,2.68,3.84,5.41,5.66,8.18c3.35,5.1,6.47,10.35,9.35,15.73     c1.43,2.67,2.8,5.37,4.1,8.1c0.6,1.26,1.19,2.52,1.77,3.79c0.29,0.63,0.57,1.27,0.85,1.9c1.4,3.09-0.59-1.4-0.87-2.14     c4.43,11.42,8.37,22.85,11.02,34.83c0.59,2.68,1.13,5.38,1.62,8.08c0.28,1.58,0.55,3.15,0.8,4.74c0.11,0.68,0.19,1.36,0.31,2.03     c0.52,3.16-0.7-5.76-0.34-2.57c0.66,5.91,1.23,11.8,1.46,17.74c0.24,6.16,0.21,12.32-0.09,18.47c-0.13,2.74-0.32,5.47-0.57,8.2     c-0.14,1.59-0.3,3.18-0.48,4.77c-0.08,0.68-0.16,1.36-0.24,2.04c-0.4,3.49,0.23-1.89,0.35-2.57c-2.21,12.02-4.45,23.8-8.28,35.44     c-0.86,2.63-1.78,5.24-2.75,7.83c-0.57,1.51-1.15,3.02-1.75,4.52c-0.26,0.64-0.53,1.28-0.79,1.93c-1.17,2.92,2.21-5,0.89-2.14     c-2.55,5.5-5.09,10.96-8.01,16.28c-2.94,5.36-6.12,10.58-9.53,15.65c-1.72,2.56-3.5,5.08-5.33,7.56     c-0.43,0.57-0.86,1.14-1.29,1.72c-1.59,2.17,1.89-2.39,1.72-2.22c-1.33,1.34-2.4,3.02-3.61,4.47     C845.99,489.15,841.72,493.8,837.28,498.27c-9.23,9.29-9.97,26.2,0,35.36c9.95,9.13,25.51,9.92,35.36,0     c40.2-40.49,63.8-94.54,66.97-151.43c3.15-56.57-15.76-111.99-50.61-156.25c-39.18-49.75-98.86-79.56-161.49-84.96     c-60.18-5.19-120.21,15.12-166.52,53.37c-11.24,9.28-21.3,19.98-31.59,30.28c-11.01,11.01-22.01,22.01-33.02,33.02     c-0.71,0.71-1.42,1.42-2.13,2.13c11.79,0,23.57,0,35.36,0c-10.47-10.47-20.94-20.94-31.41-31.41     c-12.64-12.64-24.96-25.92-39.03-37c-29-22.84-62.51-39.5-98.93-46.51c-35.84-6.9-72.92-5.98-108.17,3.81     c-35.8,9.94-68.9,28.74-95.99,54.13c-24.7,23.15-43.09,51.5-55.87,82.69c-23.97,58.47-20.45,125.35,5.26,182.5     c11.17,24.82,27.51,47.36,46.7,66.59c11.59,11.6,23.19,23.19,34.78,34.78c11.53,11.53,23.06,23.06,34.6,34.6     c19.94,19.94,39.88,39.88,59.82,59.82c28.42,28.42,56.84,56.84,85.25,85.25c26.79,26.79,53.59,53.59,80.38,80.38     c15.04,15.04,30.08,30.08,45.13,45.13c0.7,0.7,1.41,1.41,2.11,2.11c9.55,9.55,25.79,9.57,35.36,0     c11.35-11.35,22.71-22.71,34.06-34.06c27.27-27.27,54.55-54.55,81.82-81.82c33.13-33.12,66.25-66.25,99.38-99.37     c28.53-28.53,57.06-57.06,85.59-85.59c13.85-13.85,28.05-27.44,41.6-41.6c0.19-0.2,0.39-0.39,0.59-0.59     c9.26-9.26,9.95-26.22,0-35.36C862.65,489.11,847.16,488.39,837.28,498.27z"/></g></g></g><text x="0" y="1039" fill="#000000" font-size="5px" font-weight="bold" font-family="'Helvetica Neue', Helvetica, Arial-Unicode, Arial, Sans-serif">Created by shashank singh</text><text x="0" y="1044" fill="#000000" font-size="5px" font-weight="bold" font-family="'Helvetica Neue', Helvetica, Arial-Unicode, Arial, Sans-serif">from the Noun Project</text></svg>